<mxfile host="app.diagrams.net" agent="Mozilla/5.0 (Windows NT 10.0; Win64; x64) AppleWebKit/537.36 (KHTML, like Gecko) Chrome/134.0.0.0 Safari/537.36" version="26.0.11">
  <diagram name="PÃ¡gina-1" id="8EIc6hxpRkvd287NCxK8">
    <mxGraphModel dx="1259" dy="686" grid="1" gridSize="10" guides="1" tooltips="1" connect="1" arrows="1" fold="1" page="1" pageScale="1" pageWidth="827" pageHeight="1169" math="0" shadow="0">
      <root>
        <mxCell id="0" />
        <mxCell id="1" parent="0" />
        <mxCell id="hKSh2K8YSdXCwEZSykg2-17" style="edgeStyle=orthogonalEdgeStyle;rounded=0;orthogonalLoop=1;jettySize=auto;html=1;entryX=0;entryY=0.5;entryDx=0;entryDy=0;" edge="1" parent="1" source="hKSh2K8YSdXCwEZSykg2-3" target="hKSh2K8YSdXCwEZSykg2-16">
          <mxGeometry relative="1" as="geometry" />
        </mxCell>
        <mxCell id="hKSh2K8YSdXCwEZSykg2-18" value="Envia os dados" style="edgeLabel;html=1;align=center;verticalAlign=middle;resizable=0;points=[];" vertex="1" connectable="0" parent="hKSh2K8YSdXCwEZSykg2-17">
          <mxGeometry x="-0.06" y="4" relative="1" as="geometry">
            <mxPoint as="offset" />
          </mxGeometry>
        </mxCell>
        <mxCell id="hKSh2K8YSdXCwEZSykg2-3" value="" style="rounded=0;whiteSpace=wrap;html=1;fillColor=#eeeeee;strokeColor=#36393d;" vertex="1" parent="1">
          <mxGeometry x="68" y="150" width="302" height="280" as="geometry" />
        </mxCell>
        <mxCell id="hKSh2K8YSdXCwEZSykg2-13" style="edgeStyle=orthogonalEdgeStyle;rounded=0;orthogonalLoop=1;jettySize=auto;html=1;" edge="1" parent="1" source="hKSh2K8YSdXCwEZSykg2-1" target="hKSh2K8YSdXCwEZSykg2-12">
          <mxGeometry relative="1" as="geometry" />
        </mxCell>
        <mxCell id="hKSh2K8YSdXCwEZSykg2-14" value="extrai os dados" style="edgeLabel;html=1;align=center;verticalAlign=middle;resizable=0;points=[];fontSize=9;fontStyle=1" vertex="1" connectable="0" parent="hKSh2K8YSdXCwEZSykg2-13">
          <mxGeometry x="-0.1015" relative="1" as="geometry">
            <mxPoint as="offset" />
          </mxGeometry>
        </mxCell>
        <mxCell id="hKSh2K8YSdXCwEZSykg2-1" value="" style="shape=image;html=1;verticalAlign=top;verticalLabelPosition=bottom;labelBackgroundColor=#ffffff;imageAspect=0;aspect=fixed;image=https://cdn0.iconfinder.com/data/icons/long-shadow-web-icons/512/python-128.png" vertex="1" parent="1">
          <mxGeometry x="270" y="210" width="68" height="68" as="geometry" />
        </mxCell>
        <mxCell id="hKSh2K8YSdXCwEZSykg2-6" style="edgeStyle=orthogonalEdgeStyle;rounded=0;orthogonalLoop=1;jettySize=auto;html=1;curved=1;" edge="1" parent="1" source="hKSh2K8YSdXCwEZSykg2-5" target="hKSh2K8YSdXCwEZSykg2-1">
          <mxGeometry relative="1" as="geometry" />
        </mxCell>
        <mxCell id="hKSh2K8YSdXCwEZSykg2-11" value="acionamento" style="edgeLabel;html=1;align=center;verticalAlign=middle;resizable=0;points=[];fontStyle=1;fontSize=9;" vertex="1" connectable="0" parent="hKSh2K8YSdXCwEZSykg2-6">
          <mxGeometry x="-0.1641" y="2" relative="1" as="geometry">
            <mxPoint as="offset" />
          </mxGeometry>
        </mxCell>
        <mxCell id="hKSh2K8YSdXCwEZSykg2-5" value="" style="image;aspect=fixed;html=1;points=[];align=center;fontSize=12;image=img/lib/azure2/management_governance/Scheduler_Job_Collections.svg;" vertex="1" parent="1">
          <mxGeometry x="90" y="212" width="68" height="64" as="geometry" />
        </mxCell>
        <mxCell id="hKSh2K8YSdXCwEZSykg2-9" value="Scheduler&lt;div&gt;Scrapping B3&lt;/div&gt;" style="text;html=1;align=center;verticalAlign=middle;whiteSpace=wrap;rounded=0;fontStyle=1" vertex="1" parent="1">
          <mxGeometry x="161" y="160" width="106" height="30" as="geometry" />
        </mxCell>
        <mxCell id="hKSh2K8YSdXCwEZSykg2-10" value="As 10h" style="text;html=1;align=center;verticalAlign=middle;whiteSpace=wrap;rounded=0;fontSize=10;fontStyle=1" vertex="1" parent="1">
          <mxGeometry x="94" y="278" width="60" height="12" as="geometry" />
        </mxCell>
        <mxCell id="hKSh2K8YSdXCwEZSykg2-12" value="" style="shape=image;verticalLabelPosition=bottom;labelBackgroundColor=default;verticalAlign=top;aspect=fixed;imageAspect=0;image=data:image/png,iVBORw0KGgoAAAANSUhEUgAABQAAAAUACAIAAACXhmigAAAABmJLR0QA/wD/AP+gvaeTAAAgAElEQVR4nOzdd7jWZeHH8bMn5xy2R/YSFJAloqK4zT1y5N6jzGxompWZTctMM03TLE0tR+40SUPcIiKKAi4QZMiUdZhn/v7IK5MfKeP5PvfzPPfr9Zd5He77Y1de8O4Z3/zCEZfkAQAAQK4rCD0AAAAA0kEAAwAAEAUBDAAAQBQEMAAAAFEQwAAAAERBAAMAABAFAQwAAEAUBDAAAABREMAAAABEQQADAAAQBQEMAABAFAQwAAAAURDAAAAAREEAAwAAEAUBDAAAQBQEMAAAAFEQwAAAAERBAAMAABAFAQwAAEAUBDAAAABREMAAAABEQQADAAAQBQEMAABAFAQwAAAAURDAAAAAREEAAwAAEAUBDAAAQBQEMAAAAFEQwAAAAERBAAMAABAFAQwAAEAUBDAAAABREMAAAABEQQADAAAQBQEMAABAFAQwAAAAURDAAAAAREEAAwAAEAUBDAAAQBQEMAAAAFEQwAAAAERBAAMAABAFAQwAAEAUBDAAAABREMAAAABEQQADAAAQBQEMAABAFAQwAAAAURDAAAAAREEAAwAAEAUBDAAAQBQEMAAAAFEQwAAAAERBAAMAABAFAQwAAEAUBDAAAABREMAAAABEQQADAAAQBQEMAABAFAQwAAAAURDAAAAAREEAAwAAEAUBDAAAQBQEMAAAAFEQwAAAAERBAAMAABAFAQwAAEAUBDAAAABREMAAAABEQQADAAAQBQEMAABAFAQwAAAAURDAAAAAREEAAwAAEAUBDAAAQBQEMAAAAFEQwAAAAERBAAMAABAFAQwAAEAUBDAAAABREMAAAABEQQADAAAQBQEMAABAFAQwAAAAURDAAAAAREEAAwAAEAUBDAAAQBQEMAAAAFEQwAAAAERBAAMAABAFAQwAAEAUBDAAAABREMAAAABEQQADAAAQBQEMAABAFAQwAAAAURDAAAAAREEAAwAAEAUBDAAAQBQEMAAAAFEQwAAAAERBAAMAABAFAQwAAEAUBDAAAABREMAAAABEQQADAAAQBQEMAABAFAQwAAAAURDAAAAAREEAAwAAEAUBDAAAQBQEMAAAAFEQwAAAAERBAAMAABAFAQwAAEAUBDAAAABREMAAAABEQQADAAAQBQEMAABAFAQwAAAAURDAAAAAREEAAwAAEAUBDAAAQBQEMAAAAFEQwAAAAERBAAMAABAFAQwAAEAUBDAAAABREMAAAABEQQADAAAQBQEMAABAFAQwAAAAURDAAAAAREEAAwAAEAUBDAAAQBQEMAAAAFEQwAAAAERBAAMAABAFAQwAAEAUBDAAAABREMAAAABEQQADAAAQBQEMAABAFAQwAAAAURDAAAAAREEAAwAAEAUBDAAAQBQEMAAAAFEQwAAAAERBAAMAABAFAQwAAEAUBDAAAABREMAAAABEQQADAAAQBQEMAABAFAQwAAAAURDAAAAAREEAAwAAEAUBDAAAQBQEMAAAAFEQwAAAAERBAAMAABAFAQwAAEAUBDAAAABREMAAAABEQQADAAAQBQEMAABAFAQwAAAAURDAAAAAREEAAwAAEAUBDAAAQBQEMAAAAFEQwAAAAERBAAMAABAFAQwAAEAUBDAAAABREMAAAABEQQADAAAQBQEMAABAFAQwAAAAURDAAAAAREEAAwAAEAUBDAAAQBQEMAAAAFEQwAAAAERBAAMAABAFAQwAAEAUBDAAAABREMAAAABEQQADAAAQBQEMAABAFAQwAAAAURDAAAAAREEAAwAAEAUBDAAAQBQEMAAAAFEQwAAAAERBAAMAABAFAQwAAEAUBDAAAABREMAAAABEQQADAAAQBQEMAABAFAQwAAAAURDAAAAAREEAAwAAEAUBDAAAQBQEMAAAAFEQwAAAAERBAAMAABAFAQwAAEAUBDAAAABREMAAAABEQQADAAAQBQEMAABAFAQwAAAAURDAAAAAREEAAwAAEAUBDAAAQBQEMAAAAFEQwAAAAERBAAMAABAFAQwAAEAUBDAAAABREMAAAABEQQADAAAQBQEMAABAFAQwAAAAURDAAAAAREEAAwAAEAUBDAAAQBQEMAAAAFEQwAAAAERBAAMAABAFAQwAAEAUBDAAAABREMAAAABEQQADAAAQBQEMAABAFAQwAAAAURDAAAAAREEAAwAAEAUBDAAAQBQEMAAAAFEQwAAAAERBAAMAABAFAQwAAEAUBDAAAABREMAAAABEQQADAAAQBQEMAABAFAQwAAAAURDAAAAAREEAAwAAEAUBDAAAQBQEMAAAAFEQwAAAAERBAAMAABAFAQwAAEAUBDAAAABREMAAAABEQQADAAAQBQEMAABAFAQwAAAAURDAAAAAREEAAwAAEAUBDAAAQBQEMAAAAFEQwAAAAERBAAMAABAFAQwAAEAUBDAAAABREMAAAABEQQADAAAQBQEMAABAFAQwAAAAURDAAAAAREEAAwAAEAUBDAAAQBQEMAAAAFEQwAAAAERBAAMAABAFAQwAAEAUBDAAAABREMAAAABEQQADAAAQBQEMAABAFAQwAAAAURDAAAAAREEAAwAAEAUBDAAAQBQEMAAAAFEQwAAAAERBAAMAABAFAQwAAEAUBDAAAABREMAAAABEQQADAAAQBQEMAABAFAQwAAAAURDAAAAAREEAAwAAEAUBDAAAQBQEMAAAAFEQwAAAAERBAAMAABAFAQwAAEAUBDAAAABREMAAAABEQQADAAAQBQEMAABAFAQwAAAAURDAAAAAREEAAwAAEAUBDAAAQBQEMAAAAFEQwAAAAERBAAMAABAFAQwAAEAUikIPAAAAPta5Q/XAPrX9unXo3qlN99rWte2q2lSXt62uKCstqqoo/ffPrFxT39DYtK6+cfXahsam5kVLVy5YsnLe4rpFS1fOW1w348Mlb81YOG9xXdh/EMhMAhgAAIIpLy3eeftuuw7uvsv23Xcc0KVtdcXn/pJW5SX//R/7dmv//39mad2at95fOHXGwglvzX7utZnvfLAoZYshm+UXjrgk9AYAAIhLp/bVh+/Z/6Bdt91zh17lpcVJXzdvcd1zr814ZuL7jzw71YvDxEwAAwBAmlRXln5pv0HH7z9k1JCeBQX56R/Q3Nzy3Osz/vavN+9/6s1FS1elfwCEJYABACBxg7bZ+itH7XTCAUPXewNzKE3NzY8889Y1dz334qQPQm+B9BHAAACQoN2G9Ljk1D0PGNkv9JANe2XK7Kv/+vwDT01uam4OvQUSJ4ABACARQ/p1uvL8g/besXfoIZ9v8vT5F/7msTHjp4UeAskSwAAAkGLtW1f+8vwDTz5oWJAP+m62vz/31sXX/uO92YtDD4GkFBZ03i30BgAAyB0nHjj0oatOGTm4e35+NtVvXl5ev+4dzj5ixNr6xnGTZ4feAokQwAAAkBrVlaV/vOyYH5y5T2VmfNPVZigqLNhvp212G9xjzPhpdavXhZ4DKSaAAQAgBQb33fpfN5w9amjP0ENSoGfnticdNOz1dz+cMXdJ6C2QSgIYAAC21P679P37NafXtqsKPSRlKstLjt9/yPyP6ia+/WHoLZAyAhgAALbIWUfseOdPjisvLQ49JMUKCvIP3m3bhoam5yfNDL0FUkMAAwDA5vvKUTv/7jtHFBQUhB6SiPz8/L137FNWWjzmFU9IIhcIYAAA2EwnHzTspu99Meu+7XlT7Tq4x7K6tS9P8dXQZD0BDAAAm2Ov4b3v+tkJRYW5+drver6w8zYz5i55Y9r80ENgi0TxrysAAKRW7y7t/vaLk0qKC0MPSZP8/Pybvnfk0H6dQg+BLSKAAQBg05SWFN31s+NbV5WFHpJWpSVFd/z4uIqyXPuuL6IigAEAYNP89Nz9h23bOfSKALbt0eGKrx0YegVsPgEMAACbYKeB3b5+3MjQK4L56tE77zW8d+gVsJkEMAAAbKzCgoKbvvfFwhx96NHGyM/P/+X5B+b8F1+Tq+L9VxcAADbVaYfuMLB3begVgQ3btvMx+24fegVsDgEMAAAbpbSk6LKz9w29IiP86Mv7FRfF8g3Y5BIBDAAAG+XEA4Z07lAdekVG2KZr+0NGbRt6BWyyotADAAAgC+Tn53/z+N1C3b5qTf3k6fOXrFizdMWadQ2Nbasr2tVUtK2p6NmpTXlpmOcSnXHYjg+OnRLkathsAhgAAD7fiAFd+/faKs2XTpvz0a2PTBg7YfrEt+c2NjX//x8oKiwY2Kf2oJH9jvvC4DTP+8LO23TpWDNn4fJ0XgpbqLCgc7D/HwsAALLFxafsMWJA17Rd99IbH5z3y4e/dfXfn3995txFK5pbWjb4Y80tLfM/qnvu9Zk33j/u+Ukzt+vRsVO63qRdkJ+/eNmq5yfNTM91kBI+AwwAAJ8jPz//i3sNSM9ddavXnf+rh/f48k3/eOHt5uYNd+8GPfXK9F3OuOGiax+rb2hKbt5/O3DXfum5CFJFAAMAwOfo36tjp/bpeGX11bfmDDn+NzfeN26T0vc/Wlparvnr84d869a61etSvu3/27F/18rykjRcBKkigAEA4HPsM7xPGm55ZuL7e33l5g/mL9vCc556ZfqRF92RhteBS4oLdxvSI+lbIIUEMAAAfI4dtuuc9BXvzV78xW/fvnptQ0pOGzth+kXXPpaSoz7bHsN6peEWSBUBDAAAn2Nw360TPb+lpeX0H/1txapUvm/5hvvGjZ0wPYUHbtCAtH8zNmwJAQwAAJ+loCC/b7cOiV7x4NNTxr05K7VntrS0XHDNo5v3WeKN16dru0TPh9QSwAAA8Fk6tK4sKS5M9Irr730xiWPfnDb/8RffSeLk/+jVuW1RoaYga/gfKwAAfJakn6y7eNmqF17/IKHD//TIKwmd/G/FRYU9tm6T6BWQQgIYAAA+S3VlWaLnT5g6p6m5OaHDnxj33tr6xoQO/7f2bSoTPR9SSAADAMBnKS8rTvT8LX/u0WdYs67htbfnJnd+Xl5eVUVpoudDChWFHgAAABlt+uyPvve70cmd/8rUOckdnpeX99bMRbsM6p7c+ZXlJckdDqklgAEA4LO8N3vxlbc/E3rF5pu3eEWi53sFmCziLdAAAJDL6huaEj2/tCTZr8iGFBLAAACQy0pLkn3X5+q1DYmeDykkgAEAIJe1qSpP9PyVq+sTPR9SSAADAEAua1uTbADPWbg80fMhhQQwAADksqRfAZ69IMHHOEFqCWAAAMhlXWtbJ3f4vMV1i5auSu58SC2PQYIsdsDIfqEnsGHPTnzfN4JAlho1tKeHmmamCVPnLF4mtDZZRVlx327tkzt/4ttzkzscUk4AQxZ79JrTQk9gw7Y7+tfvzV4cegWwOf5w6VF9urQLvYINOORbt41+8Z3QK7LPyEE9CgsSfNfnsxPfT+5wSDlvgQYAgJx10G7Jvl9s9Lh3Ez0fUksAAwBAbiopLjzuC4OTO//dWYunvr8wufMh5QQwAADkphP2H9KxTavkzr/90VdbWlqSOx9STgADAEAOqigrvuzsfZM7f119422Pvprc+ZAEAQwAADnol+cf1C3JByD9ZfTr8z+qS+58SIIABgCAXHPGYcPPPXrn5M5vaGy68s9PJ3c+JMRjkAAAIKecfcSI6y4+PNErbnrg5WlzPkr0CkiCAAYAgBxRXVl61TcPOeOw4Ynesmjpqp/+8alEr4CECGAAAMh6leUlZxw2/Dun7lnbrirpuy78zaOLl61K+hZIggAGAIBs1b515R7Deh6467ZH7T2wqqI0DTc+MHbyX0e/noaLIAkCGAAAghm0zdYH7NJ3I3+4qLCgdVV5m+ryNlXlbarLe3dp16VjTaLz1vPOB4vO+sl96bwRUksAAwBAMCMGdPn5eQeEXrFRltatOfriO1esWhd6CGw+j0ECAAA+R31D05cu+ctbMxeGHgJbRAADAACfpb6h6djv/mXshOmhh8CW8hZoAADgf1pX33jMJX/5xwtvhx4CKSCAAQCADfv3536fmfh+6CGQGgIYAADYgGlzPjriwj+/PXNR6CGQMgIYAABY38PPTD3zJ39bVrc29BBIJQEMAAB8YvnKtRdd+9ifHpkQegikngAGAAA+9uDYKd/89SNzF60IPQQSIYABAIC8iW/P/fa1jz07cUboIZAgAQwAAFF7efKsn9869h8vvNPS0hJ6CySrIPQAAAAgpK61rXcd3KPH1q1DD4HECWAAAIhap/bVF5+yxzv3X/Twr08d3r9L6DmQIAEMAADkFRTkH7zbtuNuPe+hq07ZrkfH0HMgEQIYAAD4xCGjtnvtr9+47qLDa1qVhd4CKSaAAQCATykqLDj36J3fuPtbh4zaLvQWSCUBDAAAbEDnDtUPXXXKbZd/qby0OPQWSA0BDAAA/E8nHTj06ZvO6dKxJvQQSAEBDAAAfJYdtuvy4q1fHdx369BDYEsJYAAA4HN0al895oZzdtjOQ5LIbgIYAAD4fK2ryv553ZlD+3UKPQQ2nwAGAAA2Suuqsr9fc1q32tahh8BmEsAAAMDGqm1X9dBVp7QqLwk9BDZHUegBAAAQr8dfeGf/8/+48T9fVFhQ06qsdavy1lVlHdu26tut/fZ9tu66VVq/onnQNltf/50jTrv83nReCikhgAEAIJi5i1bMXbRiCw/p3aXdF3be5tj9Bu86uHt+fn5Khn22kw4c+vgL79zz5KQ03AUp5C3QAACQ3abP+ejG+8bt+eWbBp9w7Z2Pv9bc3JKGS6+7+LB2NRVpuAhSSAADAECOmPr+gtMuv3fkmTe8OW1+0ne1ra744Tn7Jn0LpJYABgCAnDJh6pxdTv/dnx99NemLzvniTn27tU/6FkghAQwAALlmbX3jWT+9/4b7Xkr0lqLCggtO3D3RKyC1BDAAAOSglpaWb/7670++/F6it5x80NCt2rZK9ApIIQEMAAC5qbm55fQf/W3FqnXJXVFaUnT8/kOSOx9SSwADAEDOmv9R3S9uG5voFScdODTR8yGFBDAAAOSy398/rm51gi8CD+nXqcfWbZI7H1KoKPQAIOu9NXPhzQ+8HHpFZlm4dGXoCcBm+tkfn2pdVRZ6RQYZNbTnkXsNDL2CLbJi1bp7nnjjrCN2TO6KfUb0+ePDryR3PqSKAAa21Kx5y66758XQKwBS445/TAw9IeMI4BzwyLNTEw3gvXfsLYDJCt4CDQAAOW7shOkNjU3JnT9s287JHQ4pJIABACDHrVnX8NaMhcmd37tzu1blJcmdD6kigAEAIPdNem9ecocXFOT369ExufMhVQQwAADkvlnzlyV6fucO1YmeDykhgAEAIPd9uGhFoud37iiAyQICGAAAct/ylWsTPb9dTUWi50NKCGAAAMh9a+sbEz2/rLQ40fMhJQQwAADkvvqGBB+DlJeXVy6AyQZFoQcAAECGOnBkv8P26J/c+c+9NuOvo19P7vz/VlJcmOj5zc0tiZ4PKSGAAQBgwwZts/XZR4xI7vyykqK0BXDSn9GtW70u0fMhJbwFGgAANqy+IdnPzXbpWJPo+f+tV+e2iZ6/SgCTDQQwAABs2MrV9YmeP6D3Vvn5+Yle8R87DeyW6Pl1Cf93BSkhgAEAYMPmfVSX6Pkd27Qa0GurRK/4t1blJTsN7JroFctWrkn0fEgJAQwAABs2P+EAzsvLO27/wUlfkZeXd8SeA5L+lub3Zi1O9HxICQEMAAAbNn32R0lfccZhwyvLS5K+5fxjRyZ6fktLiwAmKwhgAADYsKV1a+YuWpHoFR3btPrWCbslesWho7bbYbsuiV4xZ+GKlWt8BpgsIIABAOB/mjxtftJXXHLaXv0T+yRwZXnJ1RccmtDh//H2zIVJXwEpIYABAOB/emHSzKSvKCsp+tsvTmxTVZ7E4ddddHjPTm2SOPm/PffajKSvgJQQwAAA8D89PfH9NNzSr3uHB351cqtUfxj4+2fsfcrBw1J75gY9OX5aGm6BLSeAAQDgf5owdc7ylWvTcNGooT0f/+0ZHdpUpuS0/Pz8S8/c+0df3i8lp322j5avfvWtOWm4CLacAAYAgP+pvqHp0efeSs9duwzqPu62r+0yqPsWntO2uuKunx1/+TnpqN+8vLwx46c1N7ek5y7YQgIYAAA+ywNjJ6ftru61rZ++6ZyrLzikXU3FZvzywoKCkw8aNumubx69z/Yp3/a/3Pn4a2m7C7ZQUegBAACQ0R5/8Z0FS1Zu1bZVeq4rLCj4+rG7nnrwDjc/OP7mB8bN+HDpxvyq9q0rT9h/yJeP2qlf9w5JL/xvH8xf9s+X3k3njbAlBDAAAHyW+oamPz3yyndP2yudl9a0Krvo5N2/fdKoiW/P/ee498ZPmT1t9uJZ85etXtuQl5dXVVHaqqKkc8eaXp3bDtu286ghPYb371JYEODdnbc8OL6puTn998LmEcAAAPA5/vDg+AtP3L2kuDDN9+bn5++wXZcdtuuS5ns30tr6xlv/PiH0CtgEPgMMAACfY9b8ZX9+7NXQKzLOtXc9P/+jutArYBMIYAAA+Hy/uHVsfUNT6BUZZNHSVVfe/kzoFbBpBDAAAHy+D+Yvu/buF0KvyCA/+sO/0vOEZEghAQwAABvlZ38cM3fRitArMsL4KbNveWh86BWwyQQwAABslJVr6s/75UMtLS2hhwS2fOXaEy+9q7HJlz+TfQQwAABsrEefe+v6e18KvSKwr1358EY+nRgyjQAGAIBNcMn1j78yZXboFcHc9MDLd/3z9dArYDMJYAAA2ATr6hu/eNEds+YvCz0kgEeenfqNqx4JvQI2nwAGAIBNM/+jusMu+HNs34E8dsL047/vo79kNwEMAACbbPL0+Qd949YVq9aFHpImL0+edeRFd6yrbww9BLaIAAYAgM3x8uRZB38zigZ++Jmp+513S93q3P8nJecJYAAA2EwvvfHBqLNvzO3PA193z4vHXHLn6rUNoYdACghgAADYfFOmL9j97N9Pende6CGpt66+8eu/euRbV/+9uTn2Rx+TMwQwAABskTkLl+965g3X3fNi6CGpNPX9BbuedeMN98X+0GNyjAAGAIAttba+8VtX//3ES+9evGxV6C1bqrm55Zq/Pr/jqde//s6HobdAiglgAABIjXuenDTouN/c++QboYdsvlemzN7jyzdddO1jvvCZnCSAAQAgZRYuXXnCpXfteuaNL73xQegtm2buohXnXvHgrmdl33LYeEWhBwAAQK55efKs3c+56ai9B37n1D2H9usUes7nmLtoxXV3v3DDfS/5qmdyngAGAIDUa2lpuW/Mm/eNeXOfEX2+fuyuB4zsW1iQce++fP2dD6+56/l7n3yjobEp9BZIBwEMAAAJGjN+2pjx07rVtj7riBEnHTi0W23r0IvylqxY/eDYKX8Z/dqzE2eE3gJpJYABACBxs+Yvu+z3T/zwpid3GdTt2P0GH7Z7/65b1aR5w9K6NY+/8M49T0568uX36hu85EuMBDAAAKRJS0vLi5M+eHHSB9+46pGBvWsPHNl3zx167zKoe3VlaUI3Ll+59vnXZz796vSnX33/jffmNzU3J3QRZAUBDAAAAUyePn/y9Pm/uuPZwoKCAb23GjGgy4Betdv3qd22R4fadlWbd+aadQ0zPlw6Zfr8Ke8vmPr+wsnT50+fs0T0wn8IYAAACKmpufmN9+a98d68//ydspKiHp3adN2qdfvWle1qKtrWVJSVFBUXFbaqKMnLy6tbta6xqXn12vr6hqa16xoXL181d+GKhUtWzl20fMWqdeH+OSALCGAAAMgsa+sb35656O2Zi0IPgVyTcV/FDgAAAEkQwAAAAERBAAMAABAFAQwAAEAUBDAAAABREMAAAABEQQADAAAQBQEMAABAFAQwAAAAURDAAAAAREEAAwAAEAUBDAAAQBQEMAAAAFEQwAAAAERBAAMAABAFAQwAAEAUBDAAAABRKAo9AIANa3z5itATyFnNzS3LV639+C9Wrq1btW5p3ZqlK9YsWbF60bJVHy5cMWvBstkLls1duGLxslWhxwJAyghgAIhOQUF+m6ryf/91u5qKz/jJ5SvXvvPBoinvL3hn5qK3Zi58/Z0P5y5akZaNAJB6AhgA+J9qWpWNGNB1xICu//k78xbXTXhrzoSpc8ZPmf3SGx+sXFMfcB4AbBIBDABsgq3bVx06artDR22Xl5fX0Nj0ypQ5T02YPnbC9HGTZ62rbwy9DgA+iwAGADZTcVHhyMHdRw7ufumZe69e2zB2wvRHn3vrkWenLliyMvQ0ANgAAQwApEBFWfHBu2178G7bXnfx4c+9NuPuJybd/9Sby+rWht4FAJ/wGCQAIJWKCgv2Gt77pu8dOecf37/nihMP271/SXFh6FEAkJfnFWAAICFlJUVH7T3wqL0HLliy8s+PvnrzAy/PnLc09CgAouYVYAAgWVu1bXXxKXu888C377/y5L2G9w49B4B4CWAAIB0KCwoO36P/k78769U7vn7yQcMKC/whBIB083sPAJBWg/tufesPj5l01zdPOVgGA5BWftcBAALYtkeHP112zKS7vnn0Ptvn5+eHngNAFAQwABDMtj063P3zE17447l7DOsVegsAuU8AAwCBjRjQdcyNZz/861O717YOvQWAXCaAAYCMcPBu2755zwWXnb1vWYnHNAKQCAEMAGSKirLiy87a59U7v77LoO6htwCQgwQwAJBZ+nXv8OzNX77xu19sVV4SegsAOUUAAwAZJz8//+wjRky48+sjB3spGICUEcAAQIbq06Xd2N+fc9nZ+3pcMAAp4bcTACBzFRYUXHbWPv+8/sxO7atDbwEg6wlgACDT7blDrwl3nu9ZwQBsIQEMAGSBjm1a/fP6My8+ZY/QQwDIYgIYAMgORYUFPz/vgD9f/iUPCgZg8whgACCbnHjg0Md/e0abqvLQQwDIPgIYAMgyo4b2fOYPX+m6VU3oIQBkGQEMAGSf/j07vvCnr27fpzb0EACyiXCkQnkAACAASURBVAAGALJSp/bV/7rh7KH9OoUeAkDWEMAAQLZqV1Px5O/O3nFA19BDAMgOAhgAyGKtq8pG//YMDQzAxhDAAEB2q2lV9vi1ZwzxXmgAPo8ABgCyXuuqssevPaNvt/ahhwCQ0QQwAJALOrSpfPQ3p9e2qwo9BIDMJYABgBzRq3PbR685raqiNPQQADKUAAYAcseQfp3u/vkJhQX+hAPABvjtAQDIKfvv0vfyL+8begUAmUgAAwC55pJT9zx+/yGhVwCQcQQwAJBr8vPzb/7+kdv3qQ09BIDMIoABgBxUXlp87y9O9IVYAPw3AQwA5KZturb/zYWHhl4BQAYRwABAzjr1kB1OPmhY6BUAZAoBDADksmu/fVi32tahVwCQEQQwAJDLqitLb7n06Pz8/NBDAAhPAAMAOW7vHXuffugOoVcAEJ4ABgBy36++cXDnDtWhVwAQmAAGAHJfTauyK79xUOgVAAQmgAGAKBy73+A9d+gVegUAIQlgACAWv/32YcVFhaFXABCMAAYAYtG/11ZfPnKn0CsACEYAAwARufTMvasqSkOvACAMAQwARKR968pvHL9r6BUAhCGAAYC4fOuEUe1qKkKvACAAAQwAxKWmVdm3T94j9AoAAhDAAEB0vnLUTq2rykKvACDdBDAAEJ2qitKvHLlz6BUApJsABgBidP5xu5aVFIVeAUBaCWAAIEZbtW114oFDQ68AIK0EMAAQqa99aWToCQCklQAGACK1fZ/aEQO6hl4BQPoIYAAgXmcdMSL0BADSRwADAPE6dr9B1ZWloVcAkCYCGACIV2V5yZf2GxR6BQBpIoABgKgdu9/g0BMASBMBDABEbY9hvTq1rw69AoB0EMAAQNQKCvKP2HNA6BUApIMABgBid8y+24eeAEA6CGAAIHYjB3dvV1MRegUAiRPAAEDsCgsK9hnRJ/QKABIngAEA8vbfuW/oCQAkTgADAOTtv0vf/Pz80CsASFZR6AEAsFF+/Zfn7nliUugVARQVFlRVlrYqLykrKW5dVda5Y02fLu16d2nbq0u7NlXlodfljtp2Vdv3qX3jvXmhhwCQIAEMQHaYs2DZxLfnhl6RWWrbVe02pMduQ3rsPrTnwN61BQVewNwiuw7uLoABcpsABoBsNf+juvvGvHnfmDfz8vLaVlccufeA4/cfMmpITyW8eUYO6n7jfeNCrwAgQQIYAHLBkhWrb3nolVseeqVLx5oTDhjytWNHdmpfHXpUlhk5uEfoCQAky5dgAUBOmbNw+ZW3P9PniCtP/9Hf3p21OPScbNK9tnWXjjWhVwCQIAEMADmovqHpjn9MHHTcNV/9xUNL69aEnpM1hvfvEnoCAAkSwACQsxqbmm9+8OV+R171h4fGt7S0hJ6TBQb23ir0BAASJIABIMctWbH63CsePPibty1etir0lkw3sHdt6AkAJEgAA0AUnhj37vCTr3t58qzQQzKaAAbIbQIYAGIxZ+Hyvc/9w22Pvhp6SObaplu7shLPyADIWQIYACKyrr7x7J/e/9t7Xgg9JEMVFhT06tw29AoAkiKAASAuLS0tF1z96BW3jQ09JEN137pN6AkAJEUAA0CMfnDjE394aHzoFZmoRycBDJCzBDAAROrrv3rk6VffD70i43SrFcAAOUsAA0CkGhqbjv3uX96fuyT0kMzS0yvAALlLAANAvD5avvqkH9zd1NwcekgGqW1XFXoCAEkRwAAQtfFTZl/9l+dDr8ggbWsqQk8AICkCGABi96Obn3x75qLQKzJFOwEMkLsEMADEbm1947evfSz0ikzRtro8Pz8/9AoAEiGAAYC80S++89xrM0KvyAjFRYXVlaWhVwCQCAEMAOTl5eVdfN3jLS0toVdkhMqyktATAEiEAAYA8vLy8l6ZMvtZLwLn5eXl5ZWWFIaeAEAiBDAA8LGbHng59ISMUFJcFHoCAIkQwADAxx4cO2Xe4rrQK8IrLvIKMEBuEsAAwMcaGpv+Mvq10CvCKy3xCjBAbhLAAMAnHnl2augJ4RUUeAwSQG4SwADAJ8a9OWvh0pWhVwS2rr4x9AQAEiGAAYBPNDe3/POld0OvCKyxsSn0BAASIYABgE95YdLM0BMCq28QwAC5SQADAJ/yytQ5oScE1uAVYIAcJYABgE+Z+v7CNesaQq8Iaa3PAAPkKAEMAHxKQ2PTWzMWhl4R0tK6NaEnAJAIAQwArG/W/GWhJwSzYtU6nwEGyFUCGABY35yFy0NPCOaj5atDTwAgKQIYAFjfnAXxBvDSFQIYIGcJYABgfStWrQs9IZjFy1aFngBAUgQwALC++oZ4vwZ5dsSvfgPkPAEMAKxvXcTfAvXBvKWhJwCQFAEMAKyvqbk59IRgZgpggNwlgAGA9dVUloWeEIwABshhAhgAWF+b6vLQE4KZOVcAA+QsAQwArK+mVaSvANetXjfvo7rQKwBIigAGANbXqUN16AlhTJ42v6WlJfQKAJIigAGA9fXr3iH0hDAmvTcv9AQAEiSAAYD19enaLvSEMCZPXxB6AgAJEsAAwKds1bZV2+qK0CvCmDx9fugJACRIAAMAn7LLoO6hJ4TR1Nz8hrdAA+Q0AQwAfMqooT1DTwjjjffmr1i1LvQKABIkgAGAT9kj1gB+/vWZoScAkCwBDAB8orZd1aBttg69IowX3/gg9AQAkiWAAYBPHL3P9gUF+aFXhPGSAAbIdQIYAPjEUXsPDD0hjPdmL56zcHnoFQAkSwADAB/rulXNroN7hF4RxugX3w09AYDECWAA4GNfPWZktO9/Hv3SO6EnAJA4AQwA5OXl5VWWl5x5+PDQK8JYs67h2YkzQq8AIHECGADIy8vLO/3Q4W2rK0KvCGPshOlr1jWEXgFA4gQwAJDXqrzk4lP3CL0imMeefzv0BADSQQADAHkXnrx7p/bVoVeE0djU/ODYKaFXAJAOAhgAYtepffUFJ4wKvSKYMeOnLVy6MvQKANJBAANA7K658NDK8pLQK4K558lJoScAkCYCGACidtohOxy198DQK4JZV9/48DNTQ68AIE0EMADEq3tt66svODT0ipAee+Ht5SvXhl4BQJoIYACIVHlp8d0/P6G6sjT0kJBufmB86AkApI8ABoAY5efn3/KDo3Yc0DX0kJDen7vkqQnTQq8AIH0EMADE6KfnfuHY/QaHXhHYHx9+pbm5JfQKANJHAANAdC4+ZY/vnLpn6BWB1Tc03fb3CaFXAJBWRaEHAADpk5+f/4vzD7zwxHif+vsf9415c8ESj/8FiIsABoBYlJYUXXfR4WccNjz0kPBaWlp+dcczoVcAkG4CGACi0LlD9b2/OHGngd1CD8kIj7/4zpvT5odeAUC6CWAAyH377bTN7T86tkObytBDMsWv7ng29AQAAhDAAJDLOrSp/NU3Dj7pwKGhh2SQcW/Oeu61GaFXABCAAAaA3FRUWHDqITtc8bUD2lZXhN6SWX58y5jQEwAIQwADQK4pLio87guDv3v6Xn27tQ+9JeM899qMJ8a9G3oFAGEIYADIHbXtqo7ff/B5XxrZY+s2obdkqEuuHx16AgDBCGAAyHo1rcoO3m3bEw8Yuu9OfQoLCkLPyVyPPDv15cmzQq8AIBgBDABZqX3ryhEDuu6xQ689h/Uc0q+T7v1cjU3NP/j9E6FXABCSAAYgO2zTrf0+I/qEXhFAeWlxRVlxTWVZq4qSqsqybbq269OlXZ9u7dtUlYeelmV+f/+4KdMXhF4BQEgCGIDs8NWjd/nq0buEXkG2Wrh05eU3Pxl6BQCBebsUAJD7vnv96GV1a0OvACAwAQwA5Lhxb866/bGJoVcAEJ4ABgByWX1D07m/eLClpSX0EADCE8AAQC772Z+eenPa/NArAMgIAhgAyFmT3p135e3PhF4BQKYQwABAbqpvaDr18nsbGptCDwEgUwhgACA3/eSWMZOne/MzAJ8QwABADnr61fe9+RmA9QhgACDXLFiy8uTL7m5qbg49BIDMIoABgJzS3Nxyyg/vmbe4LvQQADKOAAYAcspPbhkzZvy00CsAyEQCGADIHQ89PeVntz4VegUAGUoAAwA5YtK78069/N7m5pbQQwDIUAIYAMgFC5as/OJFt69aUx96CACZSwADAFlvbX3jURffMWv+stBDAMhoAhgAyG5Nzc2n/vCecW/OCj0EgEwngAGALNbS0nLuFQ/e/9Tk0EMAyAICGADIYt+9fvSfHpkQegUA2UEAAwDZ6pd/fvqqO58NvQKArCGAAYCsdNWdz37/hn+GXgFANikKPQAAYJNdefsz3/vd6NArAMgyXgEGALKM+gVg8whgACCbTHp33o//8K/QKwDISgIYAMgmg/tu/fwt527TtX3oIQBkHwEMAGSZIf06jb/9a8fvPyT0EACyjAAGALJPVUXpHT8+9rbLv1RRVhx6CwBZQwADANnqpAOHvvinr/bq3Db0EACygwAGALLYwN61L9163u7DeoYeAkAWEMAAQHZrV1Mx+rdnnnLwsNBDAMh0AhgAyHolxYV/uuyYay44tKAgP/QWADKXAAYAcsT5x46862cnlJUUhR4CQIYSwABA7jhq74H/uPaMqorS0EMAyEQCGADIKbsP6/nk785qW10ReggAGUcAAwC5Znj/Lk9cf2aHNpWhhwCQWQQwAJCDhvTr9NTvz+ncoTr0EAAyiAAGAHLTdj06PnnD2Vu1bRV6CACZQgADADmrb7f2/7z+zDZV5aGHAJARBDAAkMsG9q599DenVZaXhB4CQHgCGADIcTsN7PbAlSeXej4wQPQEMACQ+/YZ0efOHx9XWOBPPgBR89sAABCFL+414OdfOyD0CgBCEsAAQCwuPHHUGYcND70CgGAEMAAQkd9edPhOA7uFXgFAGAIYAIhIWUnR/Vee1KVjTeghAAQggAGAuNS2q3roqlMqyopDDwEg3QQwABCdIf06Xfvtw0KvACDdBDAAEKPTDx1+/P5DQq8AIK0EMAAQqesvPrxnpzahVwCQPgIYAIhUTauyu352QnFRYeghAKSJAAYA4jW8f5dLz9w79AoA0kQAAwBR++5pe+02pEfoFQCkgwAGAKJWUJB/8/ePKispCj0EgMQJYAAgdn27tf/OaXuGXgFA4gQwAEDed07Zs3+vrUKvACBZAhgAIK+kuPCWS48qKMgPPQSABAlgAIC8vLy8EQO6fuXInUOvACBBAhgA4GM//soX2reuDL0CgKQIYACAj7WuKvv+GR4LDJCzBDAAwCe+ctROfbu1D70CgEQIYACATxQXFf78vANCrwAgEQIYAOBTjthzwF7De4deAUDqCWAAgPVdcd4B+fkeiQSQawQwAMD6hvfvsv8ufUOvACDFBDAAwAb84ExfBw2QawQwAMAG7DSw2+7DeoZeAUAqCWAAgA377ml7hZ4AQCoJYACADdtvp2123r5b6BUApExR6AEAsFFWr21Y19AYekUYbarKQ0+I14Un7n7MJXeGXgFAaghgALLD928Yfd09L4ZeEUxleUmr8pLOHWv6dmvfr0eHft06DN220zZd24felfsO3X27Lh1r5ixcHnoIACkggAEgC6xaU79qTf2CJSsnvj33P3+zS8eavYb33nOHXgfu2q9jm1YB5+WwosKCM4/Y8Uc3/yv0EABSwGeAASBbzVm4/I5/TDzzJ/d1PeiK/c//452Pv7Z6bUPoUTnorMNHFBcVhl4BQAoIYADIek3NzWPGTzvt8nu7HfLzH9z4xKKlq0Ivyilbt686dNR2oVcAkAICGAByx7K6tVfcNrb3Eb+88JpHP1y8IvSc3HHOkSNCTwAgBQQwAOSa1Wsbrr37he2O/vWVtz/T0NgUek4u2GfHPr27tAu9AoAtJYABIDetWlP/vd+NHnTcb/41/r3QW7Jefn7+sfsNCr0CgC0lgAEgl703e/GBX7/1gqsfrW/wUvAW+ZIABsh+AhgAclxLS8tv73lh1Nm/nz7no9BbstjA3rX9e3YMvQKALSKAASAKr741Z6fTrvd26C1x9L5eBAbIbgIYAGKxrG7tYRf8+e4nJoUekq18DBgg2wlgAIhIfUPTKT+857p7Xgw9JCv1695hYO/a0CsA/q+9O3+2uyzsOH4uWUhIwGCWouwaVtuiIFgVikrRUui0jo5aHRkZRmtdWnUqOohTZaQqrkUtLgiySC0YlISAsgRCBCHBRMhGICE3LDch282e3O2c/pIZJumVcG/uzXO+9/N6/QWfn84573me7/fQfwIYALLU641Pf3vaf/3igdJDKunc048vPQGA/hPAAJDo3787/brpc0uvqJ6/OW1y6QkA9J8ABoBEjUbjn//zlt88uKT0kIp580lHjR09svQKAPpJAANAqK7unvddfOOSFWtKD6mSkSOGnfG6o0uvAKCfBDAA5NqyvfN9F9+4vaOr9JAqOfuvjik9AYB+EsAAEG3+0lWfu+KO0iuq5Ow3CGCAqhLAAJDuv3/5+zs8DPySnXDUpEkHjy29AoD+EMAAQO1T35q2o7O79IrKOPU1h5WeAEB/CGAAoLbs2XWXX3tf6RWV8foTBTBAJQlgAKBWq9Uuv27m8rb20iuq4bQTDy89AYD+EMAAQK1Wq+3o7P76tfeWXlENp77msJaWltIrAOgzAQwA7HTtbXNXrNpQekUFvPygA45+5cGlVwDQZwIYANipq7vnOz+fVXpFNZxygseAAapHAAMAL7h66pyNW3aUXlEBxx85sfQEAPpMAAMAL9i2o2vKjAWlV1TA5MPHl54AQJ8JYABgFzfcMbf0hAo49ogJpScA0GcCGADYxax5rf4PaY+OOcIVaIDqEcAAwC4ajca0WYtKr2h24w4cNengsaVXANA3AhgA2N29c5aVnlABk4/wGDBAxQhgAGB3989b3lOvl17R7I48xF8BA1SMAAYAdrdxy465i58rvaLZTTp4TOkJAPSNAAYAejFn8bOlJzS7iS/3DDBAxQhgAKAXT6xYW3pCs5s4zgkwQMUIYACgF0tWrCk9odlNcgIMUDUCGADoxRMCeE88AwxQOQIYAOjFM6s3NhqN0iua2gRXoAGqRgADAL2o1xtbd3SVXtHURo8aUXoCAH0jgAGA3m3e2lF6QlPbf8Tw0hMA6BsBDAD0bvM2AfxiRo4YVnoCAH0jgAGA3u3ocAX6xTgBBqgcAQwA9O6A0SNLT2hqI4bv19LSUnoFAH0ggAGA3h00Zv/SE5paS0vLiOF+SgFUiU9tAKB3Y0cL4D0YPsxPKYAq8akNAPRixPBhB/ibnz3p7OopPQGAPhDAAEAvXnXoy0tPaHb1eqO7p156BQB9IIABgF4ce8SE0hOaXUdXd+kJAPSNAAYAenHckRNLT2h27j8DVI4ABgB6cdxRAngPnAADVI4ABgB68eaTjio9odlt2tpRegIAfSOAAYDdHTrxIM8A79H6jdtKTwCgbwQwALC7s06bXHpCBawTwABVI4ABgN297VQBvGftm7aXngBA3whgAGAXo/cfcd7pJ5ReUQFrN24tPQGAvhHAAMAu/uHME8cdOKr0igpYt8EVaICKEcAAwC7OP/fk0hOqoXVle+kJAPSNAAYAXnDkIeO8AeslWiGAAapGAAMAL/js+WcO28/Pg5dEAANUjm84AGCnV0w48EN///rSK6qhq7unbc3m0isA6BsBDADsdNH5bxk1cnjpFdXwzPMbe+r10isA6BsBDADUarXaMYdP+PA7Tyu9ojIeb11degIAfSaAAYBarVb7wef+0fHvSzd/6arSEwDoMwEMANQ+cM7r3nbqq0uvqJJFy50AA1SPAAaAdIeMP/Ab//Z3pVdUzMKnni89AYA+E8AAEG3Yfvtd+6X3TDp4bOkhVdJTry9pXVN6BQB9JoABINqlHz37rNMml15RMQuXPb+9o6v0CgD6TAADQK53vvU1F51/ZukV1fPQgqdLTwCgPwQwAIR6yymvuv7S97W0tJQeUj0PPrqi9AQA+kMAA0Cik459xS+//kH/e9Q/D813AgxQSQIYAOKcfPyhv/3eheMOHFV6SCWtad+67Ln1pVcA0B8CGACynPOm42b88CMTxo0pPaSqfvfH1kajUXoFAP0hgAEgyIfOO+WWb3xw7OiRpYdU2F0PP1l6AgD95MkfAIgwauTwr37inE++902lh1Te3bMFMEBVCWAAGPpOPHrSjZf905+/+pDSQyrvyWfWPuUBYIDKEsAAMJTtP3L4Z95/xhcufJsXPg8I958BKs13IQAMWeedccI3P3Xu5MPGlx4ydNzxwJLSEwDoPwEMAEPQGa87+uIL3nr2G44pPWRI2bB5xz1zlpZeAUD/CWAAGDpaWlrOPf34z51/5hv/8sjSW4agabMWdXb1lF4BQP8JYAAYCk581Z+9+6y/eP/fvtaF58EzZcaC0hMA2CsCGACqauzokW866ai/Pvno804/3hueB9umrR13ewMWQMUJYACohjGjR75ywkGTDx9/3JETJx8+/rXHvvL1Jx42fNh+pXeluHXmwh2d3aVXALBXBDAA1XDJhWd98r1vLr2igP1HDh8zauS4A0eVHpLummmPlJ4AwN4SwABUw/iXHTD+ZQeUXkGo5W3ts+a1ll4BwN5ybwoAYA+umTqn0WiUXgHA3hLAAAAvpl5v3HDHvNIrABgAAhgA4MVMf+Dxp1dtKL0CgAEggAEAXsx3bpxVegIAA0MAAwD8SfOXrrp/7vLSKwAYGAIYAOBP+tYN95eeAMCAEcAAAL1buXbzTXc/VnoFAANGAAMA9O7bP7+/s6un9AoABowABgDoxfPrt/zolodLrwBgIAlgAIBefPP6mdt2dJVeAcBAEsAAALtz/AswJAlgAIDdXX7tfY5/AYYeAQwAsItlz677oeNfgKFIAAMA7OKiK27v6OwuvQKAgSeAAQBecP/c5bfOXFR6BQCDQgADAOxUrzc+e8XtpVcAMFgEMADATj/+1cN/WPxs6RUADBYBDABQq9Vqz6/f8sUr7yy9AoBBJIABAGq1Wu0z376tffP20isAGEQCGACgdudDT/zvXY+WXgHA4BLAAEC6TVs7Pva1X5deAcCgE8AAQLpPfWtq68r20isAGHQCGACIduvMRddNn1t6BQD7ggAGAHKtbt/yL1/9VekVAOwjAhgACFWvNz70pZtXt28pPQSAfUQAAwChvnL1jDsfeqL0CgD2HQEMACS695Fll/10RukVAOxTAhgAiPPs6o3vv+R/eur10kMA2KcEMACQZUdn93s+//M17VtLDwFgXxPAAECQRqPxkcumzF74TOkhABQggAGAIF/+yd03/uaPpVcAUIYABgBS3HTXY5ddfW/pFQAUI4ABgAgz5iy74NKbG41G6SEAFCOAAYChb87CZ9510fUdnd2lhwBQkgAGAIa4hcueP+/TP9u8raP0EAAKE8AAwFD21HPrz/nXq9dt3FZ6CADlCWAAYMha3tb+jk9c1bZ2U+khADSF4aUHAAAMiiUr1rz941c9t0b9ArCTAAYAhqDFravf/vGrVq7dXHoIAE3EFWgAYKh5eMHTb/nIj9QvALsRwADAkDL1/kVnf/wqb70C4P9zBRoAGDqunvrIx772q+6eeukhADQjAQwADAX1euOSK397+XUzSw8BoHkJYACg8jZt7bjgyzfdOnNR6SEANDUBDABU25IVa9590Q2LW1eXHgJAsxPAAECFTZmx4MJLb96yvbP0EAAqQAADAJW0o7P74u//5ns3PdhoNEpvAaAaBDAAUD2LW1d/4JJfPPbkytJDAKgSAQwAVEmj0fjhlIcvuuL27R1dpbcAUDECGACojOVt7R/96i33zF5aeggAlSSAAYAKqNcbP50657Pfne59VwD0mwAGAJrdvCVtH/v6r+csfKb0EACqTQADAM1r/aZtX7lqxg9u/n1PvV56CwCVJ4ABgGbU3VO/ZtojX7zyzrUbtpbeAsAQIYABgObSaDSmzFjwHz+6a8mKNaW3ADCkCGAAoIncM3vp579/x7wlbaWHADAECWAAoLx6vTH9gce/9rP7Hl7wdOktAAxZAhgAKKmzq+emux+7/Nr7Fi1fXXoLAEOcAAYAyli1bvM10x658uaH2tZuKr0FgAgCGADYp+r1xr2PLPvJr2ffOnNRV3dP6TkABBHAAMA+smj56pvveuz62+e2rmwvvQWARAIYABhcK1ZtmDpz0S/vmf/Ao62ltwAQTQADAAOvp15/9ImVt/3u8dtmLZ63pK3RaJReBAACGAAYID31+mNPrvrdH1tnzn3qntlLN2/rKL0IAHYhgAGA/nt61YYFy1b94fHnHnx0xUPznxa9ADQzAQwAvCTbO7qWt7W3tq1f3tb+xIo185etmv/kqvbN20vvAoCXSgADNKl7Zi8tPYEgPfX6pq0dtVpt6/bOzu6eru6edRu3rd+4bd3GbWs3bFu7YWvbmk2r1m0uPRMA9ooABmhS7/jkT0tPAAAYUvYrPQAAAAD2BQEMAABABAEMAABABAEMAABABAEMAABABAEMAABABAEMAABABAEMAABABAEMAABABAEMAABABAEMAABABAEMAABABAEMAABABAEMAABABAEMAABABAEMAABABAEMAABABAEMAABABAEMAABABAEMAABABAEMAABABAEMAABABAEMAABABAEMAABABAEMAABABAEMAABABAEMAABABAEMAABABAEMAABABAEMAABABAEMAABABAEMAABABAEMAABABAEMAABABAEMAABABAEMAABABAEMAABABAEMAABABAEMAABABAEMAABABAEMAABABAEMAABABAEMAABABAEMAABABAEMAABABAEMAABABAEMAABABAEMAABABAEMAABABAEMAABABAEMAABABAEMAABABAEMAABABAEMAABABAEMAABABAEMAABABAEMAABABAEMAABABAEMAABABAEMAABABAEMAABABAEMAABABAEMAABAFtgoDAAACQNJREFUBAEMAABABAEMAABABAEMAABABAEMAABAhOGlBwCVd8oJh07/7gWlVzSXD39lStvaTaVXAP3x4y+869CJB5Ve0USOeMW40hMABowABvbWhHFj3vHGY0uvaC5jRo8sPQHop78++ejJh40vvQKAQeEKNAAAABEEMAAAABEEMAAAABEEMAAAABEEMAAAABEEMAAAABEEMAAAABEEMAAAABEEMAAAABEEMAAAABEEMAAAABEEMAAAABEEMAAAABEEMAAAABEEMAAAABEEMAAAABEEMAAAABEEMAAAABEEMAAAABEEMAAAABEEMAAAABEEMAAAABEEMAAAABEEMAAAABEEMAAAABEEMAAAABEEMAAAABEEMAAAABEEMAAAABEEMAAAABEEMAAAABEEMAAAABEEMAAAABEEMAAAABEEMAAAABEEMAAAABEEMAAAABEEMAAAABEEMAAAABEEMAAAABEEMAAAABEEMAAAABEEMAAAABEEMAAAABFahp32+dIbAAAAYNA5AQYAACCCAAYAACCCAAYAACCCAAYAACCCAAYAACCCAAYAACCCAAYAACCCAAYAACCCAAYAACCCAAYAACCCAAYAACCCAAYAACCCAAYAACCCAAYAACCCAAYAACCCAAYAACCCAAYAACCCAAYAACCCAAYAACCCAAYAACCCAAYAACCCAAYAACCCAAYAACCCAAYAACCCAAYAACCCAAYAACCCAAYAACCCAAYAACCCAAYAACCCAAYAACCCAAYAACCCAAYAACCCAAYAACCCAAYAACCCAAYAACCCAAYAACCCAAYAACCCAAYAACCCAAYAACCCAAYAACCCAAYAACCCAAYAACCCAAYAACCCAAYAACCCAAYAACCCAAYAACCCAAYAACCCAAYAACCCAAYAACCCAAYAACCCAAYAACCCAAYAACCCAAYAACCCAAYAACCCAAYAACCCAAYAACCCAAYAACCCAAYAACCCAAYAACCCAAYAACCCAAYAACCCAAYAACCCAAYAACCCAAYAACCCAAYAACCCAAYAACCCAAYAACCCAAYAACCCAAYAACCCAAYAACCCAAYAACCCAAYAACCCAAYAACCCAAYAACCCAAYAACCCAAYAACCCAAYAACCCAAYAACCCAAYAACCCAAYAACCCAAYAACCCAAYAACCCAAYAACCCAAYAACCCAAYAACCCAAYAACCCAAYAACCCAAYAACCCAAYAACCCAAYAACCCAAYAACCCAAYAACCCAAYAACCCAAYAACCCAAYAACCCAAYAACCCAAYAACCCAAYAACCCAAYAACCCAAYAACCCAAYAACCCAAYAACCCAAYAACCCAAYAACCCAAYAACCCAAYAACCCAAYAACCCAAYAACCCAAYAACCCAAYAACCCAAYAACCCAAYAACCCAAYAACCCAAYAACCCAAYAACCCAAYAACCCAAYAACCCAAYAACCCAAYAACCCAAYAACCCAAYAACCCAAYAACCCAAYAACCCAAYAACCCAAYAACCCAAYAACCCAAYAACCCAAYAACCCAAYAACCCAAYAACCCAAYAACCCAAYAACCCAAYAACCCAAYAACCCAAYAACCCAAYAACCCAAYAACCCAAYAACCCAAYAACCCAAYAACCCAAYAACCCAAYAACCCAAYAACCCAAYAACCCAAYAACCCAAYAACCCAAYAACCCAAYAACCCAAYAACCCAAYAACCCAAYAACCCAAYAACCCAAYAACCCAAYAACCCAAYAACCCAAYAACCCAAYAACCCAAYAACCCAAYAACCCAAYAACCCAAYAACCCAAYAACCCAAYAACCCAAYAACCCAAYAACCCAAYAACCCAAYAACCCAAYAACCCAAYAACCCAAYAACCCAAYAACCCAAYAACCCAAYAACCCAAYAACCCAAYAACCCAAYAACCCAAYAACCCAAYAACCCAAYAACCCAAYAACCCAAYAACCCAAYAACCCAAYAACCCAAYAACCCAAYAACCCAAYAACCCAAYAACCCAAYAACCCAAYAACCCAAYAACCCAAYAACCCAAYAACCCAAYAACCCAAYAACCCAAYAACCCAAYAACCCAAYAACCCAAYAACCCAAYAACCCAAYAACCCAAYAACCCAAYAACCCAAYAACCCAAYAACCCAAYAACCCAAYAACCCAAYAACCCAAYAACCCAAYAACCCAAYAACCCAAYAACCCAAYAACCCAAYAACCCAAYAACCCAAYAACCCAAYAACCCAAYAACCCAAYAACCCAAYAACCCAAYAACCCAAYAACCCAAYAACCCAAYAACCCAAYAACCCAAYAACCCAAYAACCCAAYAACCCAAYAACCCAAYAACCCAAYAACCCAAYAACCCAAYAACCCAAYAACCCAAYAACCCAAYAACCCAAYAACCCAAYAACCCAAYAACCCAAYAACCCAAYAACCCAAYAACCCAAYAACCCAAYAACCCAAYAACCCAAYAACCCAAYAACCCAAYAACCCAAYAACCCAAYAACCCAAYAACCCAAYAACCCAAYAACCCAAYAACCCAAYAACCCAAYAACCCAAYAACCCAAYAACCCAAYAACCCAAYAACCCAAYAACCCAAYAACCCAAYAACCCAAYAACCCAAYAACCCAAYAACCCAAYAACCCAAYAACCCAAYAACCCAAYAACCCAAYAACCCAAYAACCCAAYAACCCAAYAACCCAAYAACCCAAYAACCCAAYAACCCAAYAACCCAAYAACCCAAYAACCCAAYAACCCAAYAACCCAAYAACCCAAYAACCCAAYAACCCAAYAACCCAAYAACCCAAYAACCCAAYAACCCAAYAACCCAAYAACCCAAYAACCCAAYAACCCAAYAACCCAAYAACCCAAYAACCCAAYAACCCAAYAACCCAAYAACCCAAYAACCCAAYAACCCAAYAACCCAAYAACCCAAYAACCCAAYAACCCAAYAACCCAAYAACCCAAYAACCCAAYAACCCAAYAACCCAAYAACCCAAYAACCCAAYAACCCAAYAACCCAAYAACCCAAYAACCCAAYAACCCAAYAACCCAAYAACCCAAYAACDC/wHDnSEAHlKj9wAAAABJRU5ErkJggg==;" vertex="1" parent="1">
          <mxGeometry x="270" y="350" width="70" height="70" as="geometry" />
        </mxCell>
        <mxCell id="hKSh2K8YSdXCwEZSykg2-16" value="" style="rounded=0;whiteSpace=wrap;html=1;fillColor=#cce5ff;strokeColor=#36393d;" vertex="1" parent="1">
          <mxGeometry x="480" y="195" width="630" height="190" as="geometry" />
        </mxCell>
        <mxCell id="hKSh2K8YSdXCwEZSykg2-20" value="" style="sketch=0;points=[[0,0,0],[0.25,0,0],[0.5,0,0],[0.75,0,0],[1,0,0],[0,1,0],[0.25,1,0],[0.5,1,0],[0.75,1,0],[1,1,0],[0,0.25,0],[0,0.5,0],[0,0.75,0],[1,0.25,0],[1,0.5,0],[1,0.75,0]];outlineConnect=0;fontColor=#232F3E;fillColor=#7AA116;strokeColor=#ffffff;dashed=0;verticalLabelPosition=bottom;verticalAlign=top;align=center;html=1;fontSize=12;fontStyle=0;aspect=fixed;shape=mxgraph.aws4.resourceIcon;resIcon=mxgraph.aws4.s3;" vertex="1" parent="1">
          <mxGeometry x="520" y="260" width="70" height="70" as="geometry" />
        </mxCell>
        <mxCell id="hKSh2K8YSdXCwEZSykg2-22" value="Camada da AWS" style="text;html=1;align=center;verticalAlign=middle;whiteSpace=wrap;rounded=0;fontStyle=1" vertex="1" parent="1">
          <mxGeometry x="742" y="205" width="106" height="30" as="geometry" />
        </mxCell>
        <mxCell id="hKSh2K8YSdXCwEZSykg2-23" value="Raw Bucket" style="text;html=1;align=center;verticalAlign=middle;whiteSpace=wrap;rounded=0;fontSize=10;fontStyle=1" vertex="1" parent="1">
          <mxGeometry x="525" y="330" width="60" height="12" as="geometry" />
        </mxCell>
        <mxCell id="hKSh2K8YSdXCwEZSykg2-30" style="edgeStyle=orthogonalEdgeStyle;rounded=0;orthogonalLoop=1;jettySize=auto;html=1;" edge="1" parent="1" source="hKSh2K8YSdXCwEZSykg2-24" target="hKSh2K8YSdXCwEZSykg2-29">
          <mxGeometry relative="1" as="geometry" />
        </mxCell>
        <mxCell id="hKSh2K8YSdXCwEZSykg2-24" value="" style="outlineConnect=0;dashed=0;verticalLabelPosition=bottom;verticalAlign=top;align=center;html=1;shape=mxgraph.aws3.lambda_function;fillColor=#F58534;gradientColor=none;" vertex="1" parent="1">
          <mxGeometry x="649.75" y="260" width="69" height="72" as="geometry" />
        </mxCell>
        <mxCell id="hKSh2K8YSdXCwEZSykg2-25" style="edgeStyle=orthogonalEdgeStyle;rounded=0;orthogonalLoop=1;jettySize=auto;html=1;entryX=0;entryY=0.5;entryDx=0;entryDy=0;entryPerimeter=0;curved=1;" edge="1" parent="1" source="hKSh2K8YSdXCwEZSykg2-20" target="hKSh2K8YSdXCwEZSykg2-24">
          <mxGeometry relative="1" as="geometry" />
        </mxCell>
        <mxCell id="hKSh2K8YSdXCwEZSykg2-26" value="Lambda&lt;div&gt;Trigger AWS Glue&lt;/div&gt;" style="text;html=1;align=center;verticalAlign=middle;whiteSpace=wrap;rounded=0;fontSize=10;fontStyle=1" vertex="1" parent="1">
          <mxGeometry x="630" y="332" width="108.5" height="23" as="geometry" />
        </mxCell>
        <mxCell id="hKSh2K8YSdXCwEZSykg2-36" style="edgeStyle=orthogonalEdgeStyle;rounded=0;orthogonalLoop=1;jettySize=auto;html=1;" edge="1" parent="1" source="hKSh2K8YSdXCwEZSykg2-29" target="hKSh2K8YSdXCwEZSykg2-34">
          <mxGeometry relative="1" as="geometry" />
        </mxCell>
        <mxCell id="hKSh2K8YSdXCwEZSykg2-29" value="" style="sketch=0;points=[[0,0,0],[0.25,0,0],[0.5,0,0],[0.75,0,0],[1,0,0],[0,1,0],[0.25,1,0],[0.5,1,0],[0.75,1,0],[1,1,0],[0,0.25,0],[0,0.5,0],[0,0.75,0],[1,0.25,0],[1,0.5,0],[1,0.75,0]];outlineConnect=0;fontColor=#232F3E;fillColor=#8C4FFF;strokeColor=#ffffff;dashed=0;verticalLabelPosition=bottom;verticalAlign=top;align=center;html=1;fontSize=12;fontStyle=0;aspect=fixed;shape=mxgraph.aws4.resourceIcon;resIcon=mxgraph.aws4.glue;" vertex="1" parent="1">
          <mxGeometry x="760" y="261" width="70" height="70" as="geometry" />
        </mxCell>
        <mxCell id="hKSh2K8YSdXCwEZSykg2-33" value="Glue ETL" style="text;html=1;align=center;verticalAlign=middle;whiteSpace=wrap;rounded=0;fontSize=10;fontStyle=1" vertex="1" parent="1">
          <mxGeometry x="765" y="332.5" width="60" height="7" as="geometry" />
        </mxCell>
        <mxCell id="hKSh2K8YSdXCwEZSykg2-39" style="edgeStyle=orthogonalEdgeStyle;rounded=0;orthogonalLoop=1;jettySize=auto;html=1;" edge="1" parent="1" source="hKSh2K8YSdXCwEZSykg2-34" target="hKSh2K8YSdXCwEZSykg2-38">
          <mxGeometry relative="1" as="geometry" />
        </mxCell>
        <mxCell id="hKSh2K8YSdXCwEZSykg2-34" value="" style="sketch=0;points=[[0,0,0],[0.25,0,0],[0.5,0,0],[0.75,0,0],[1,0,0],[0,1,0],[0.25,1,0],[0.5,1,0],[0.75,1,0],[1,1,0],[0,0.25,0],[0,0.5,0],[0,0.75,0],[1,0.25,0],[1,0.5,0],[1,0.75,0]];outlineConnect=0;fontColor=#232F3E;fillColor=#7AA116;strokeColor=#ffffff;dashed=0;verticalLabelPosition=bottom;verticalAlign=top;align=center;html=1;fontSize=12;fontStyle=0;aspect=fixed;shape=mxgraph.aws4.resourceIcon;resIcon=mxgraph.aws4.s3;" vertex="1" parent="1">
          <mxGeometry x="880" y="261" width="70" height="70" as="geometry" />
        </mxCell>
        <mxCell id="hKSh2K8YSdXCwEZSykg2-35" value="Refined Bucket" style="text;html=1;align=center;verticalAlign=middle;whiteSpace=wrap;rounded=0;fontSize=10;fontStyle=1" vertex="1" parent="1">
          <mxGeometry x="885" y="332" width="60" height="22.5" as="geometry" />
        </mxCell>
        <mxCell id="hKSh2K8YSdXCwEZSykg2-38" value="" style="sketch=0;points=[[0,0,0],[0.25,0,0],[0.5,0,0],[0.75,0,0],[1,0,0],[0,1,0],[0.25,1,0],[0.5,1,0],[0.75,1,0],[1,1,0],[0,0.25,0],[0,0.5,0],[0,0.75,0],[1,0.25,0],[1,0.5,0],[1,0.75,0]];outlineConnect=0;fontColor=#232F3E;fillColor=#8C4FFF;strokeColor=#ffffff;dashed=0;verticalLabelPosition=bottom;verticalAlign=top;align=center;html=1;fontSize=12;fontStyle=0;aspect=fixed;shape=mxgraph.aws4.resourceIcon;resIcon=mxgraph.aws4.athena;" vertex="1" parent="1">
          <mxGeometry x="1000" y="261" width="70" height="70" as="geometry" />
        </mxCell>
        <mxCell id="hKSh2K8YSdXCwEZSykg2-40" value="Athenas" style="text;html=1;align=center;verticalAlign=middle;whiteSpace=wrap;rounded=0;fontSize=10;fontStyle=1" vertex="1" parent="1">
          <mxGeometry x="1005" y="332.5" width="60" height="12" as="geometry" />
        </mxCell>
      </root>
    </mxGraphModel>
  </diagram>
</mxfile>
